<svg width="42" height="84" viewBox="0 0 42 84" fill="none" xmlns="http://www.w3.org/2000/svg">
<path d="M26.9745 62.3081L13.381 11.8793C13.4746 11.8901 13.5683 11.8973 13.6656 11.8973C14.5987 11.8973 15.3589 11.3173 15.3589 10.6003C15.3589 9.88335 14.5987 9.30689 13.6656 9.30689C13.3233 9.30689 13.0063 9.38255 12.7433 9.51586L11.158 3.63964L11.0283 2.25976C12.9234 1.5572 15.7048 0.768185 19.1383 0.60966C22.6042 0.451136 25.4613 0.995163 27.3888 1.51757C29.0965 -0.20458 31.6401 -0.298253 32.9984 0.858256C34.5908 2.21652 34.6953 5.42304 32.4183 7.29291C33.3587 10.3085 34.3026 14.4121 34.4827 19.3336C34.6269 23.2823 34.2414 26.7014 33.7406 29.3963C35.7618 32.4371 38.1684 36.8073 39.7609 42.4313C40.0203 43.3464 40.2437 44.2399 40.431 45.1082C41.2236 48.7219 41.1588 52.4724 40.2365 56.0572C39.433 59.1881 38.3017 62.6396 36.7093 66.2676C35.2177 69.6579 33.5892 72.5978 32.0076 75.0946C30.3035 77.5697 28.5993 80.0449 26.8916 82.5164C26.7727 82.6101 23.9625 84.6853 21.3684 83.5901C20.1975 83.0965 19.2536 82.0372 18.7276 80.6826L20.1903 73.0806C21.9233 70.3316 23.6562 67.5791 25.3892 64.8265C25.9188 63.9871 26.4448 63.1476 26.9745 62.3081ZM18.3421 13.9257C16.674 14.0626 15.3661 14.758 15.4238 15.4749C15.4814 16.1955 16.8757 17.6763 18.5474 17.5394C20.2155 17.4025 21.5306 15.7055 21.4729 14.985C21.4153 14.2644 20.0138 13.7924 18.3421 13.9257ZM23.6671 10.2725C23.6671 9.55909 22.9069 8.97904 21.9737 8.97904C21.0406 8.97904 20.2804 9.55909 20.2804 10.2725C20.2804 10.9858 21.037 11.5695 21.9737 11.5695C22.9105 11.5695 23.6671 10.9894 23.6671 10.2725Z" fill="#75BC54"/>
<path d="M16.8359 63.4425L26.8302 62.3652C26.3006 63.2407 25.8358 64.073 25.3638 64.8116C24.3334 66.44 23.2742 67.6146 21.462 67.7731C19.9019 67.91 18.731 67.3552 17.697 66.422C17.4844 66.1734 17.2683 65.9212 17.0485 65.669L16.8359 63.4425Z" fill="#75BC54"/>
<path d="M20.8201 69.8164L20.7913 69.9713L20.748 69.9245C20.7733 69.8885 20.7985 69.8524 20.8201 69.8164Z" fill="#75BC54"/>
<path d="M18.0322 66.8145L20.7488 69.9237C19.7256 68.7924 18.8753 67.8052 18.0322 66.8145Z" fill="#75BC54"/>
<path d="M20.1904 73.0801L18.7277 80.6821C18.5367 80.1921 18.3998 79.6661 18.3278 79.1148L18.317 79.0284L18.2917 78.7437L18.2845 78.6609C18.2125 77.5008 18.4142 76.247 18.9763 75.0112C19.3798 74.3663 19.7869 73.725 20.1904 73.0801Z" fill="#75BC54"/>
<path d="M18.291 78.7441L18.3162 79.0288C18.3054 78.9351 18.2982 78.8414 18.291 78.7441Z" fill="#75BC54"/>
<path d="M18.0323 66.8136C18.8754 67.8044 19.7257 68.7916 20.7489 69.9229C19.7941 71.4 18.8322 72.8772 17.8738 74.3543L17.0596 65.7832C17.2613 66.003 17.4667 66.2119 17.6757 66.4029C17.6793 66.4065 17.6829 66.4065 17.6829 66.4101L17.7081 66.4353L18.0323 66.8136Z" fill="#75BC54"/>
<path d="M17.697 66.421C17.697 66.421 17.7042 66.4318 17.7078 66.4354L17.6826 66.4102C17.6826 66.4102 17.6934 66.4174 17.697 66.421Z" fill="#75BC54"/>
<path d="M17.6967 66.421C17.6967 66.421 17.6895 66.4138 17.6823 66.4102C17.6823 66.4065 17.6823 66.4065 17.675 66.4029L17.0518 65.686V65.668C17.2679 65.9202 17.4841 66.1724 17.6967 66.421Z" fill="#75BC54"/>
<path d="M17.0518 65.6875L17.675 66.4045C17.4661 66.2135 17.2607 66.0045 17.059 65.7848L17.0518 65.6875Z" fill="#75BC54"/>
<path d="M17.0518 65.6862L17.059 65.7835C16.6951 65.3836 16.3384 64.9368 15.9854 64.4648L17.0518 65.6862Z" fill="#75BC54"/>
<path d="M17.0481 65.6696V65.6876L15.9853 64.4662C15.9528 64.4266 15.924 64.3834 15.8916 64.3438C16.2987 64.8013 16.6806 65.2409 17.0481 65.6696Z" fill="#75BC54"/>
<path d="M15.3516 63.5999L16.8359 63.4414L17.0485 65.668C16.681 65.2392 16.2991 64.7997 15.892 64.3421C15.7154 64.1007 15.5353 63.8521 15.3516 63.5999Z" fill="#75BC54"/>
<path d="M15.9859 64.4654L15.2617 63.6367C15.4815 63.8781 15.6905 64.1159 15.8922 64.3429C15.9246 64.3825 15.9535 64.4257 15.9859 64.4654Z" fill="#75BC54"/>
<path d="M11.9752 10.7324C12.0544 11.3125 12.6345 11.7808 13.3803 11.8781L26.9738 62.3069C26.4441 63.1464 25.9181 63.9859 25.3885 64.8253L25.3633 64.8109C25.8353 64.0723 26.3 63.2401 26.8296 62.3646L16.8354 63.4418L11.8311 10.7468L11.9752 10.7324Z" fill="#75BC54"/>
<path d="M11.8319 10.7471L11.1582 3.63867L12.7434 9.51489C12.2751 9.74547 11.9688 10.1454 11.9688 10.5993C11.9688 10.6426 11.9724 10.6894 11.976 10.7326L11.8319 10.7471Z" fill="#75BC54"/>
<path d="M11.0284 2.25781L11.1581 3.6377L10.8086 2.34068C10.8807 2.31185 10.9527 2.28664 11.0284 2.25781Z" fill="#75BC54"/>
<path d="M18.5578 81.5566C14.8937 79.4598 3.58805 72.6973 0.622918 56.5818C0.00323153 53.2276 -0.0219883 50.0823 0.262635 47.2685C0.691372 43.0712 1.21378 39.9367 1.39753 39.1513C2.04964 36.4024 3.24578 32.5617 5.57681 28.2888C4.75536 26.3577 3.74297 23.3025 3.60606 19.451C3.41872 14.1405 5.00036 10.0404 5.99474 7.92918C3.45835 5.74947 3.62768 2.33038 5.15888 1.06579C6.46671 -0.0114552 9.1292 0.179495 11.0099 2.08179L11.0279 2.25833C10.9522 2.28715 10.8802 2.31237 10.8081 2.34119L11.1576 3.63821L11.8313 10.7466L16.8357 63.4416L15.3513 63.6001C15.535 63.8523 15.7152 64.1009 15.8917 64.3423C15.69 64.1153 15.481 63.8775 15.2612 63.6362L15.9854 64.4648C16.3385 64.9368 16.6951 65.3835 17.059 65.7834L17.8733 74.3546C17.8517 74.3906 17.8264 74.4266 17.8048 74.4627C17.4986 74.9562 16.9654 75.9759 16.9257 77.3485C16.8609 79.6507 18.2336 81.2072 18.5578 81.5566Z" fill="#75BC54"/>
</svg>
