<svg width="29" height="60" viewBox="0 0 29 60" fill="none" xmlns="http://www.w3.org/2000/svg">
<g clip-path="url(#clip0_680_2538)">
<path d="M19.0457 43.9931L9.44776 8.38672C9.5139 8.39435 9.58004 8.39944 9.64873 8.39944C10.3076 8.39944 10.8443 7.98988 10.8443 7.48365C10.8443 6.97742 10.3076 6.57041 9.64873 6.57041C9.40706 6.57041 9.1832 6.62383 8.9975 6.71795L7.8782 2.56891L7.78662 1.59462C9.12469 1.09856 11.0886 0.541458 13.5128 0.429528C15.96 0.317598 17.9773 0.701721 19.3383 1.07058C20.5441 -0.145384 22.34 -0.211524 23.2991 0.605054C24.4235 1.56409 24.4972 3.82812 22.8895 5.14839C23.5535 7.2776 24.22 10.1751 24.3471 13.65C24.4489 16.438 24.1767 18.8522 23.8231 20.755C25.2502 22.902 26.9495 25.9877 28.0739 29.9587C28.2571 30.6048 28.4148 31.2357 28.5471 31.8487C29.1067 34.4002 29.0609 37.0484 28.4097 39.5795C27.8424 41.7901 27.0436 44.2272 25.9193 46.7888C24.8661 49.1826 23.7163 51.2584 22.5995 53.0213C21.3963 54.7689 20.193 56.5166 18.9872 58.2616C18.9033 58.3278 16.9191 59.793 15.0875 59.0197C14.2607 58.6712 13.5943 57.9233 13.2228 56.9668L14.2557 51.5993C15.4793 49.6583 16.7028 47.7148 17.9264 45.7713C18.3004 45.1786 18.6718 44.5858 19.0457 43.9931ZM12.9507 9.83163C11.7728 9.9283 10.8494 10.4193 10.8901 10.9255C10.9308 11.4343 11.9153 12.4798 13.0957 12.3831C14.2735 12.2865 15.202 11.0883 15.1613 10.5795C15.1206 10.0708 14.131 9.73751 12.9507 9.83163ZM16.7105 7.25216C16.7105 6.74848 16.1737 6.33891 15.5149 6.33891C14.856 6.33891 14.3193 6.74848 14.3193 7.25216C14.3193 7.75584 14.8535 8.16795 15.5149 8.16795C16.1763 8.16795 16.7105 7.75839 16.7105 7.25216Z" fill="black"/>
<path d="M11.8875 44.7958L18.9441 44.0352C18.5702 44.6533 18.242 45.2409 17.9088 45.7624C17.1812 46.9123 16.4333 47.7416 15.1538 47.8535C14.0523 47.9502 13.2255 47.5584 12.4954 46.8995C12.3453 46.724 12.1927 46.5459 12.0375 46.3679L11.8875 44.7958Z" fill="black"/>
<path d="M14.7008 49.2969L14.6804 49.4063L14.6499 49.3732C14.6677 49.3478 14.6855 49.3223 14.7008 49.2969Z" fill="black"/>
<path d="M12.7322 47.1758L14.6502 49.3711C13.9278 48.5724 13.3274 47.8753 12.7322 47.1758Z" fill="black"/>
<path d="M14.2558 51.6016L13.2229 56.9691C13.0881 56.6231 12.9915 56.2517 12.9406 55.8625L12.9329 55.8015L12.9151 55.6005L12.9101 55.542C12.8592 54.7229 13.0016 53.8376 13.3985 52.9651C13.6834 52.5097 13.9708 52.0569 14.2558 51.6016Z" fill="black"/>
<path d="M12.915 55.5977L12.9328 55.7986C12.9252 55.7325 12.9201 55.6663 12.915 55.5977Z" fill="black"/>
<path d="M12.732 47.1768C13.3273 47.8763 13.9276 48.5733 14.6501 49.3721C13.976 50.4151 13.2967 51.4581 12.6201 52.5011L12.0452 46.4492C12.1876 46.6044 12.3326 46.7519 12.4802 46.8868C12.4827 46.8893 12.4853 46.8893 12.4853 46.8919L12.5031 46.9097L12.732 47.1768Z" fill="black"/>
<path d="M12.4955 46.8983C12.4955 46.8983 12.5006 46.9059 12.5032 46.9084L12.4854 46.8906C12.4854 46.8906 12.493 46.8957 12.4955 46.8983Z" fill="black"/>
<path d="M12.4954 46.8989C12.4954 46.8989 12.4903 46.8938 12.4852 46.8912C12.4852 46.8887 12.4852 46.8887 12.4801 46.8861L12.04 46.3799V46.3672C12.1927 46.5453 12.3453 46.7233 12.4954 46.8989Z" fill="black"/>
<path d="M12.04 46.3789L12.4801 46.8851C12.3326 46.7503 12.1876 46.6028 12.0451 46.4476L12.04 46.3789Z" fill="black"/>
<path d="M12.0398 46.378L12.0449 46.4467C11.788 46.1643 11.5362 45.8489 11.2869 45.5156L12.0398 46.378Z" fill="black"/>
<path d="M12.0375 46.3658V46.3785L11.2871 45.5162C11.2642 45.4882 11.2438 45.4577 11.2209 45.4297C11.5084 45.7528 11.7781 46.0631 12.0375 46.3658Z" fill="black"/>
<path d="M10.8391 44.9049L11.8872 44.793L12.0373 46.3651C11.7778 46.0624 11.5081 45.752 11.2207 45.4289C11.096 45.2585 10.9688 45.083 10.8391 44.9049Z" fill="black"/>
<path d="M11.287 45.5187L10.7756 44.9336C10.9308 45.104 11.0784 45.2719 11.2208 45.4322C11.2437 45.4602 11.2641 45.4907 11.287 45.5187Z" fill="black"/>
<path d="M8.45576 7.57812C8.51172 7.98769 8.92128 8.31839 9.44786 8.38707L19.0458 43.9935C18.6719 44.5862 18.3005 45.1789 17.9265 45.7716L17.9087 45.7615C18.242 45.24 18.5701 44.6523 18.9441 44.0342L11.8874 44.7948L8.354 7.5883L8.45576 7.57812Z" fill="black"/>
<path d="M8.35412 7.58935L7.87842 2.57031L8.99772 6.71935C8.66701 6.88215 8.45079 7.16452 8.45079 7.48505C8.45079 7.51558 8.45333 7.54865 8.45587 7.57917L8.35412 7.58935Z" fill="black"/>
<path d="M7.78677 1.59375L7.87835 2.56805L7.63159 1.65226C7.68247 1.63191 7.73335 1.6141 7.78677 1.59375Z" fill="black"/>
<path d="M13.1031 57.5844C10.516 56.1038 2.53338 51.329 0.43978 39.9503C0.00223626 37.582 -0.0155708 35.3612 0.185394 33.3744C0.488113 30.4108 0.856973 28.1977 0.98671 27.6431C1.44715 25.7022 2.29171 22.9904 3.93759 19.9734C3.35759 18.6099 2.64276 16.4527 2.5461 13.7333C2.41382 9.98366 3.53057 7.08874 4.23267 5.59804C2.4418 4.05901 2.56136 1.64488 3.6425 0.751988C4.56592 -0.00862578 6.44583 0.126199 7.77373 1.46936L7.78645 1.59401C7.73303 1.61436 7.68215 1.63216 7.63127 1.65251L7.87803 2.5683L8.35373 7.58734L11.8871 44.7938L10.8391 44.9058C10.9688 45.0838 11.096 45.2594 11.2207 45.4298C11.0782 45.2695 10.9307 45.1016 10.7755 44.9312L11.2868 45.5163C11.5361 45.8495 11.7879 46.165 12.0449 46.4473L12.6198 52.4992C12.6045 52.5246 12.5867 52.5501 12.5714 52.5755C12.3552 52.924 11.9787 53.6439 11.9507 54.6131C11.905 56.2387 12.8742 57.3376 13.1031 57.5844Z" fill="black"/>
</g>
<defs>
<clipPath id="clip0_680_2538">
<rect width="29" height="59.3101" fill="white"/>
</clipPath>
</defs>
</svg>
