<svg width="96" height="96" viewBox="0 0 96 96" fill="none" xmlns="http://www.w3.org/2000/svg">
<path d="M48 24C52.4183 24 56 20.4183 56 16C56 11.5817 52.4183 8 48 8C43.5817 8 40 11.5817 40 16C40 20.4183 43.5817 24 48 24Z" fill="black"/>
<path d="M76 51.9997V43.9997C69.84 44.0797 63.64 40.9997 59.72 36.6797L54.56 30.9597C53.88 30.1997 53.04 29.5997 52.12 29.1597C52.08 29.1597 52.08 29.1197 52.04 29.1197H52C50.6 28.3197 49 27.9197 47.24 28.0797C43.04 28.4397 40 32.1597 40 36.3597V59.9997C40 64.3997 43.6 67.9997 48 67.9997H68V87.9997H76V65.9997C76 61.5997 72.4 57.9997 68 57.9997H56V44.1997C61.16 48.4797 69 51.9597 76 51.9997ZM51.32 71.9997C49.68 76.6397 45.24 79.9997 40 79.9997C33.36 79.9997 28 74.6397 28 67.9997C28 62.7597 31.36 58.3597 36 56.6797V48.3997C26.88 50.2397 20 58.3197 20 67.9997C20 79.0397 28.96 87.9997 40 87.9997C49.68 87.9997 57.76 81.1197 59.6 71.9997H51.32Z" fill="black"/>
</svg>
