<svg width="34" height="81" viewBox="0 0 34 81" fill="none" xmlns="http://www.w3.org/2000/svg">
<g clip-path="url(#clip0_306_562)">
<path d="M24.7794 7.86009C25.1094 12.4501 21.2094 16.5301 16.6394 16.3901C11.7894 16.2501 8.21943 11.4301 9.07943 6.89009C9.74943 3.36009 13.0094 0.51009 16.8394 0.50009C20.9794 0.48009 24.4894 3.80009 24.7794 7.86009V7.86009Z" fill="#6DC444"/>
<path d="M32.5594 28.7592C32.6094 37.8292 32.6594 46.8892 32.7094 55.9592H24.5994V67.6792C26.6294 71.7292 28.6594 75.7792 30.6794 79.8292H22.4294C20.5994 76.1692 18.7694 72.4992 16.9394 68.8392V80.2692H8.8394V56.4292H0.679404C0.289404 43.5992 0.569404 32.9392 1.1294 28.6092C1.2994 27.3192 1.6494 25.2892 3.1894 23.5492C4.9694 21.5592 7.1494 21.0692 7.8194 20.9492H26.6294C27.2694 21.0392 29.1394 21.3792 30.6794 22.9692C32.9294 25.2892 32.6094 28.3292 32.5594 28.7592V28.7592Z" fill="#6DC444"/>
<path d="M16.8394 0.50009C13.0094 0.51009 9.74943 3.36009 9.07943 6.89009C8.21943 11.4301 11.7894 16.2501 16.6394 16.3901C21.2094 16.5301 25.1094 12.4501 24.7794 7.86009C24.4894 3.80009 20.9794 0.48009 16.8394 0.50009V0.50009Z" stroke="#6DC444" stroke-miterlimit="10"/>
<path d="M0.699404 56.9292C0.689404 56.7592 0.689404 56.5992 0.679404 56.4292C0.289404 43.5992 0.569404 32.9392 1.1294 28.6092C1.2994 27.3192 1.6494 25.2892 3.1894 23.5492C4.9694 21.5592 7.1494 21.0692 7.8194 20.9492H26.6294C27.2694 21.0392 29.1394 21.3792 30.6794 22.9692C32.9294 25.2892 32.6094 28.3292 32.5594 28.7592C32.6094 37.8292 32.6594 46.8892 32.7094 55.9592H24.5994V67.6792C26.6294 71.7292 28.6594 75.7792 30.6794 79.8292H22.4294C20.5994 76.1692 18.7694 72.4992 16.9394 68.8392V80.2692H8.8394V56.4292H0.729404" stroke="#6DC444" stroke-miterlimit="10"/>
</g>
<defs>
<clipPath id="clip0_306_562">
<rect width="33.21" height="80.77" fill="white"/>
</clipPath>
</defs>
</svg>
