<svg width="42" height="89" viewBox="0 0 42 89" fill="none" xmlns="http://www.w3.org/2000/svg">
<g clip-path="url(#clip0_322_1309)" filter="url(#filter0_d_322_1309)">
<path d="M28.7804 7.86009C29.1104 12.4501 25.2104 16.5301 20.6404 16.3901C15.7904 16.2501 12.2204 11.4301 13.0804 6.89009C13.7504 3.36009 17.0104 0.51009 20.8404 0.50009C24.9804 0.48009 28.4904 3.80009 28.7804 7.86009Z" fill="#6DC444"/>
<path d="M36.5604 28.7592C36.6104 37.8292 36.6604 46.8892 36.7104 55.9592H28.6004V67.6792C30.6304 71.7292 32.6604 75.7792 34.6804 79.8292H26.4304C24.6004 76.1692 22.7704 72.4992 20.9404 68.8392V80.2692H12.8404V56.4292H4.68038C4.29038 43.5992 4.57038 32.9392 5.13038 28.6092C5.30038 27.3192 5.65038 25.2892 7.19038 23.5492C8.97038 21.5592 11.1504 21.0692 11.8204 20.9492H30.6304C31.2704 21.0392 33.1404 21.3792 34.6804 22.9692C36.9304 25.2892 36.6104 28.3292 36.5604 28.7592Z" fill="#6DC444"/>
<path d="M20.8404 0.50009C17.0104 0.51009 13.7504 3.36009 13.0804 6.89009C12.2204 11.4301 15.7904 16.2501 20.6404 16.3901C25.2104 16.5301 29.1104 12.4501 28.7804 7.86009C28.4904 3.80009 24.9804 0.48009 20.8404 0.50009V0.50009Z" stroke="#6DC444" stroke-miterlimit="10"/>
<path d="M4.70038 56.9292C4.69038 56.7592 4.69038 56.5992 4.68038 56.4292C4.29038 43.5992 4.57038 32.9392 5.13038 28.6092C5.30038 27.3192 5.65038 25.2892 7.19038 23.5492C8.97038 21.5592 11.1504 21.0692 11.8204 20.9492H30.6304C31.2704 21.0392 33.1404 21.3792 34.6804 22.9692C36.9304 25.2892 36.6104 28.3292 36.5604 28.7592C36.6104 37.8292 36.6604 46.8892 36.7104 55.9592H28.6004V67.6792C30.6304 71.7292 32.6604 75.7792 34.6804 79.8292H26.4304C24.6004 76.1692 22.7704 72.4992 20.9404 68.8392V80.2692H12.8404V56.4292H4.73038" stroke="#6DC444" stroke-miterlimit="10"/>
</g>
<defs>
<filter id="filter0_d_322_1309" x="0" y="0" width="41.21" height="88.7695" filterUnits="userSpaceOnUse" color-interpolation-filters="sRGB">
<feFlood flood-opacity="0" result="BackgroundImageFix"/>
<feColorMatrix in="SourceAlpha" type="matrix" values="0 0 0 0 0 0 0 0 0 0 0 0 0 0 0 0 0 0 127 0" result="hardAlpha"/>
<feOffset dy="4"/>
<feGaussianBlur stdDeviation="2"/>
<feComposite in2="hardAlpha" operator="out"/>
<feColorMatrix type="matrix" values="0 0 0 0 0 0 0 0 0 0 0 0 0 0 0 0 0 0 0.25 0"/>
<feBlend mode="normal" in2="BackgroundImageFix" result="effect1_dropShadow_322_1309"/>
<feBlend mode="normal" in="SourceGraphic" in2="effect1_dropShadow_322_1309" result="shape"/>
</filter>
<clipPath id="clip0_322_1309">
<rect width="33.21" height="80.77" fill="white" transform="translate(4)"/>
</clipPath>
</defs>
</svg>
