<svg width="908" height="1856" viewBox="0 0 908 1856" fill="none" xmlns="http://www.w3.org/2000/svg">
<path d="M596.25 1376.7L295.898 262.466C297.968 262.705 300.038 262.864 302.187 262.864C322.805 262.864 339.602 250.047 339.602 234.206C339.602 218.364 322.805 205.628 302.187 205.628C294.625 205.628 287.619 207.299 281.808 210.245L246.782 80.4082L243.916 49.9194C285.788 34.3963 347.244 16.9627 423.108 13.4601C499.688 9.95744 562.815 21.9779 605.404 33.5206C643.137 -4.53074 699.339 -6.60048 729.35 18.9529C764.535 48.9641 766.844 119.813 716.533 161.128C737.31 227.758 758.167 318.428 762.147 427.169C765.331 514.417 756.814 589.962 745.749 649.507C790.407 716.694 843.584 813.256 878.769 937.52C884.501 957.739 889.436 977.482 893.576 996.666C911.089 1076.51 909.656 1159.38 889.277 1238.59C871.525 1307.76 846.529 1384.03 811.343 1464.19C778.387 1539.1 742.405 1604.06 707.458 1659.22C669.805 1713.91 632.152 1768.6 594.419 1823.21C591.792 1825.28 529.699 1871.13 472.384 1846.93C446.512 1836.03 425.655 1812.62 414.033 1782.69L446.353 1614.72C484.643 1553.98 522.933 1493.17 561.223 1432.35C572.925 1413.8 584.548 1395.25 596.25 1376.7ZM405.515 307.682C368.658 310.707 339.761 326.071 341.035 341.912C342.308 357.833 373.116 390.551 410.052 387.526C446.91 384.501 475.966 347.007 474.692 331.086C473.418 315.165 442.452 304.736 405.515 307.682ZM523.172 226.962C523.172 211.2 506.375 198.383 485.757 198.383C465.139 198.383 448.343 211.2 448.343 226.962C448.343 242.724 465.06 255.62 485.757 255.62C506.455 255.62 523.172 242.803 523.172 226.962Z" fill="#1D1D1B"/>
<path d="M372.248 1401.77L593.073 1377.97C581.371 1397.31 571.102 1415.7 560.674 1432.02C537.907 1468 514.503 1493.95 474.461 1497.45C439.992 1500.48 414.12 1488.22 391.274 1467.6C386.577 1462.11 381.801 1456.54 376.945 1450.96L372.248 1401.77Z" fill="#1D1D1B"/>
<path d="M460.287 1542.59L459.651 1546.01L458.695 1544.98C459.253 1544.18 459.81 1543.38 460.287 1542.59Z" fill="#1D1D1B"/>
<path d="M398.68 1476.28L458.702 1544.97C436.094 1519.98 417.307 1498.17 398.68 1476.28Z" fill="#1D1D1B"/>
<path d="M446.357 1614.71L414.037 1782.68C409.818 1771.86 406.793 1760.23 405.201 1748.05L404.962 1746.14L404.405 1739.85L404.246 1738.02C402.653 1712.39 407.111 1684.69 419.53 1657.38C428.446 1643.13 437.441 1628.96 446.357 1614.71Z" fill="#1D1D1B"/>
<path d="M404.402 1739.86L404.96 1746.15C404.721 1744.08 404.562 1742.01 404.402 1739.86Z" fill="#1D1D1B"/>
<path d="M398.671 1476.28C417.299 1498.17 436.086 1519.98 458.694 1544.98C437.598 1577.62 416.344 1610.26 395.169 1642.9L377.178 1453.51C381.636 1458.37 386.173 1462.99 390.79 1467.21C390.87 1467.29 390.949 1467.29 390.949 1467.37L391.507 1467.92L398.671 1476.28Z" fill="#1D1D1B"/>
<path d="M391.272 1467.61C391.272 1467.61 391.431 1467.84 391.51 1467.92L390.953 1467.37C390.953 1467.37 391.192 1467.53 391.272 1467.61Z" fill="#1D1D1B"/>
<path d="M391.271 1467.6C391.271 1467.6 391.112 1467.44 390.952 1467.36C390.952 1467.28 390.952 1467.28 390.793 1467.2L377.021 1451.36V1450.96C381.798 1456.54 386.574 1462.11 391.271 1467.6Z" fill="#1D1D1B"/>
<path d="M377.021 1451.37L390.793 1467.21C386.176 1462.99 381.639 1458.37 377.181 1453.52L377.021 1451.37Z" fill="#1D1D1B"/>
<path d="M377.014 1451.36L377.174 1453.51C369.133 1444.68 361.253 1434.81 353.451 1424.38L377.014 1451.36Z" fill="#1D1D1B"/>
<path d="M376.936 1450.97V1451.36L353.453 1424.38C352.736 1423.5 352.099 1422.55 351.383 1421.67C360.378 1431.78 368.816 1441.49 376.936 1450.97Z" fill="#1D1D1B"/>
<path d="M339.443 1405.27L372.241 1401.77L376.938 1450.97C368.818 1441.49 360.38 1431.78 351.384 1421.67C347.484 1416.34 343.503 1410.84 339.443 1405.27Z" fill="#1D1D1B"/>
<path d="M353.454 1424.39L337.453 1406.08C342.309 1411.41 346.926 1416.67 351.384 1421.68C352.101 1422.56 352.737 1423.51 353.454 1424.39Z" fill="#1D1D1B"/>
<path d="M264.856 237.137C266.607 249.953 279.424 260.302 295.902 262.451L596.253 1376.69C584.551 1395.24 572.929 1413.78 561.227 1432.33L560.67 1432.01C571.098 1415.69 581.367 1397.31 593.069 1377.96L372.244 1401.76L261.672 237.455L264.856 237.137Z" fill="#1D1D1B"/>
<path d="M261.679 237.46L246.793 80.3984L281.819 210.235C271.471 215.33 264.704 224.166 264.704 234.196C264.704 235.151 264.784 236.186 264.863 237.141L261.679 237.46Z" fill="#1D1D1B"/>
<path d="M243.92 49.9082L246.786 80.3971L239.064 51.7391C240.657 51.1023 242.249 50.545 243.92 49.9082Z" fill="#1D1D1B"/>
<path d="M410.291 1802.03C329.332 1755.7 79.5302 1606.28 14.0149 1250.21C0.322796 1176.09 -0.234442 1106.6 6.05439 1044.43C15.5274 951.686 27.0702 882.429 31.1301 865.075C45.5387 804.336 71.9677 719.477 123.472 625.065C105.322 582.396 82.9532 514.891 79.9282 429.793C75.7887 312.454 110.735 221.864 132.707 175.215C76.6644 127.054 80.4058 51.508 114.238 23.5665C143.135 -0.235527 201.963 3.98356 243.517 46.0152L243.915 49.9159C242.244 50.5527 240.652 51.11 239.059 51.7468L246.781 80.4047L261.667 237.466L372.239 1401.77L339.442 1405.28C343.502 1410.85 347.482 1416.34 351.383 1421.68C346.925 1416.66 342.308 1411.41 337.452 1406.07L353.452 1424.38C361.254 1434.81 369.135 1444.68 377.175 1453.52L395.166 1642.9C394.688 1643.7 394.131 1644.49 393.653 1645.29C386.887 1656.19 375.105 1678.72 374.229 1709.05C372.796 1759.92 403.126 1794.31 410.291 1802.03Z" fill="#1D1D1B"/>
</svg>
